# xmcd
#
# Track frame offsets:
#	150
#	17979
#	31078
#	45868
#	62164
#	75378
#	91579
#	107840
#	120990
#	135526
#	146152
#	168562
#	184597
#	197870
#	211604
#	224100
#	237041
#	256552
#	269338
#	282943
#
# Disc length: 3949 seconds
#
# Revision: 0
# Processed by: cddbd v1.5.2PL0 Copyright (c) Steve Scherf et al.
# Submitted via: EasyCDDAExtractor 16.0.6.1
#
DISCID=0f0f6b14
DTITLE=校園民歌 - 民歌45（五）
DYEAR=2008
DGENRE=flok
TTITLE0=恰似你的溫柔
TTITLE1=夕陽伴我歸
TTITLE2=思念總在分手後
TTITLE3=踏著夕陽歸去
TTITLE4=再愛我一次
TTITLE5=抉擇
TTITLE6=鄉間小路
TTITLE7=赤足走在田埂上
TTITLE8=陽光和小雨
TTITLE9=愛情
TTITLE10=流浪者的獨白
TTITLE11=怎麼能
TTITLE12=出塞曲
TTITLE13=外婆的澎湖灣
TTITLE14=匆匆別後
TTITLE15=迎著風迎著雨
TTITLE16=偶然
TTITLE17=大海邊
TTITLE18=蘭花草
TTITLE19=神話
EXTD=
EXTT0=
EXTT1=
EXTT2=
EXTT3=
EXTT4=
EXTT5=
EXTT6=
EXTT7=
EXTT8=
EXTT9=
EXTT10=
EXTT11=
EXTT12=
EXTT13=
EXTT14=
EXTT15=
EXTT16=
EXTT17=
EXTT18=
EXTT19=
PLAYORDER=
